:SAMPLES-PER-SECOND 30
:FULLY-SPECIFIED
:DEGREES
145
root  2.433199958 35.03533311 0.1879655587 -90.06298828 -82.78829956 81.61901855
lowerback  12.89729977 3.618700027 -3.498480082
upperback  4.932879925 4.153940201 -0.06112239882
thorax  -2.27809 1.954419971 1.291290045
lowerneck  -3.054490089 6.299250126 -1.097100019
upperneck  14.65270042 8.529979706 -0.7250900269
head  4.8894701 3.999360085 0.3809790015
lclavicle  0 -9.442270133e-015 7.951389973e-016
lhumerus  2.268729925 -12.80560017 83.17060089
lradius  2.446978156e-031 -2.545808701e-031 133.8659973
lwrist  -7.062250077e-031 -7.062250077e-031 -1.500339985
lhand  -1.496451383e-031 -27.76390076 20.11240005
lfingers  90 7.125020027 -90
lthumb  89.89689403 5.08795885 91.16245106
rclavicle  0 -9.442270133e-015 7.951389973e-016
rhumerus  30.70599937 29.39599991 -74.01709747
rradius  -2.100492663e-031 2.838445809e-031 126.5019989
rwrist  7.062250077e-031 -0 -8.384929657
rhand  -7.920061211e-032 -33.2840004 9.303460121
rfingers  -90 -7.125020027 -90
rthumb  -92.93752616 -24.25625642 -97.11982154
rfemur  -11.95660019 25.22979927 -1.501790047
rtibia  -0 0 69.55680084
rfoot  -0 -31.53450012 -7.405650139
rtoes  5.373923086 19.29304026 -105.8922705
lfemur  -16.29310036 -2.611609936 -7.545390129
ltibia  -0 0 65.15950012
lfoot  4.881795238e-032 -25.2901001 -1.412559986
ltoes  -4.250644065 -19.5611806 -102.515957
146
root  2.575844479 34.97311149 0.1949819993 -102.2180176 -83.16030121 94.07598877
lowerback  13.0770998 3.756910086 -2.765189886
upperback  4.912129879 4.419509888 0.04122810066
thorax  -2.365149975 2.090990067 0.9370049834
lowerneck  -3.150350094 6.490369797 -1.001410007
upperneck  14.48460007 8.830459595 -1.074509978
head  4.874639988 4.134200096 0.2756119967
lclavicle  0 -9.442270133e-015 7.951389973e-016
lhumerus  2.237459898 -12.51990032 83.01390076
lradius  2.464029822e-031 -2.529308418e-031 134.2510071
lwrist  -1.059337512e-030 -0 -1.505599976
lhand  -1.496451383e-031 -27.76390076 20.11240005
lfingers  90 7.125020027 -90
lthumb  89.89689403 5.08795885 91.16245106
rclavicle  0 -9.442270133e-015 7.951389973e-016
rhumerus  30.62999916 30.00250053 -74.33529663
rradius  -2.10133467e-031 2.837822518e-031 126.5189972
rwrist  0 -1.765562519e-031 -8.26638031
rhand  -7.920061211e-032 -33.2840004 9.303460121
rfingers  -90 -7.125020027 -90
rthumb  -92.93752616 -24.25625642 -97.11982154
rfemur  -12.88850021 25.91329956 -1.241750002
rtibia  -0 0 68.95729828
rfoot  -1.058596513e-031 -33.49679947 -7.147709846
rtoes  5.373923086 19.29304026 -105.8922705
lfemur  -16.56679916 -1.792739987 -7.201039791
ltibia  -0 0 65.87149811
lfoot  5.197022536e-032 -25.52510071 -0.2193499953
ltoes  -4.250644065 -19.5611806 -102.515957
147
root  2.730222199 34.93266669 0.2107468881 -111.8200073 -83.2385025 103.9050293
lowerback  13.28110027 3.747999907 -2.039669991
upperback  5.028439999 4.484230042 0.1042049974
thorax  -2.307039976 2.122220039 0.5810239911
lowerneck  -3.179780006 6.685470104 -0.8780019879
upperneck  14.04189968 9.139399529 -1.50583005
head  4.770669937 4.278059959 0.1339530051
lclavicle  0 -9.442270133e-015 7.951389973e-016
lhumerus  2.334840059 -12.14529991 82.76820374
lradius  2.482679384e-031 -2.511005199e-031 134.6750031
lwrist  -7.062250077e-031 -0 -1.502269983
lhand  -1.496451383e-031 -27.76390076 20.11240005
lfingers  90 7.125020027 -90
lthumb  89.89689403 5.08795885 91.16245106
rclavicle  0 -9.442270133e-015 7.951389973e-016
rhumerus  30.67160034 30.57449913 -74.44909668
rradius  -2.101978521e-031 2.837345649e-031 126.5319977
rwrist  7.062250077e-031 -1.765562519e-031 -8.367010117
rhand  -7.920061211e-032 -33.2840004 9.303460121
rfingers  -90 -7.125020027 -90
rthumb  -92.93752616 -24.25625642 -97.11982154
rfemur  -13.67459965 26.00860023 -1.085960031
rtibia  -0 0 68.5358963
rfoot  -0 -34.61019897 -9.309519768
rtoes  5.373923086 19.29304026 -105.8922705
lfemur  -16.98189926 -1.846590042 -7.166739941
ltibia  -0 0 66.62470245
lfoot  4.891364237e-032 -25.52630043 1.486279964
ltoes  -4.250644065 -19.5611806 -102.515957
148
root  2.896644375 34.90755577 0.2061346619 -117.2609863 -83.11779785 109.4949951
lowerback  13.51570034 3.623409986 -1.638249993
upperback  5.270180225 4.348619938 0.1409779936
thorax  -2.150150061 2.047940016 0.4120700061
lowerneck  -3.200150013 6.889959812 -0.7581449747
upperneck  13.04339981 9.444840431 -1.908810019
head  4.996960163 4.435100079 -0.01986920089
lclavicle  0 -9.442270133e-015 7.951389973e-016
lhumerus  2.572659969 -11.59739971 82.46849823
lradius  2.50406231e-031 -2.489681904e-031 135.1649933
lwrist  -3.531125038e-031 -3.531125038e-031 -1.083940029
lhand  -1.496451383e-031 -27.76390076 20.11240005
lfingers  90 7.125020027 -90
lthumb  89.89689403 5.08795885 91.16245106
rclavicle  0 -9.442270133e-015 7.951389973e-016
rhumerus  30.86630058 31.08580017 -74.35310364
rradius  -2.103513655e-031 2.836207739e-031 126.5630035
rwrist  0 -0 -8.575260162
rhand  -7.920061211e-032 -33.2840004 9.303460121
rfingers  -90 -7.125020027 -90
rthumb  -92.93752616 -24.25625642 -97.11982154
rfemur  -14.2432003 25.53910065 -1.085620046
rtibia  -0 0 68.20899963
rfoot  -0 -34.76060104 -10.86349964
rtoes  5.373923086 19.29304026 -105.8922705
lfemur  -17.54000092 -2.475260019 -7.382619858
ltibia  -0 0 67.35559845
lfoot  4.875649026e-032 -25.13680077 3.109349966
ltoes  -4.250644065 -19.5611806 -102.515957
149
root  3.064822212 34.94155463 0.1616115528 -119.9509888 -83.01909637 112.3959961
lowerback  13.66839981 3.466069937 -1.585260034
upperback  5.54445982 4.127840042 0.2073709965
thorax  -1.94133997 1.927479982 0.4867860079
lowerneck  -3.225739956 7.076960087 -0.6106680036
upperneck  12.45240021 9.722160339 -2.26947999
head  4.81619978 4.576739788 -0.1613730043
lclavicle  0 -9.442270133e-015 7.951389973e-016
lhumerus  2.82366991 -11.15680027 82.2589035
lradius  2.525090535e-031 -2.468352047e-031 135.651001
lwrist  -1.059337512e-030 -0 -0.616460979
lhand  -1.496451383e-031 -27.76390076 20.11240005
lfingers  90 7.125020027 -90
lthumb  89.89689403 5.08795885 91.16245106
rclavicle  0 -9.442270133e-015 7.951389973e-016
rhumerus  31.08499908 31.56710052 -74.27500153
rradius  -2.106037127e-031 2.834334429e-031 126.6139984
rwrist  7.062250077e-031 -1.765562519e-031 -8.745249748
rhand  -7.920061211e-032 -33.2840004 9.303460121
rfingers  -90 -7.125020027 -90
rthumb  -92.93752616 -24.25625642 -97.11982154
rfemur  -14.82069969 24.78930092 -1.033669949
rtibia  -0 0 67.92880249
rfoot  -0 -35.12929916 -12.01210022
rtoes  5.373923086 19.29304026 -105.8922705
lfemur  -18.33740044 -2.847690105 -7.431709766
ltibia  -0 0 67.98709869
lfoot  9.679764745e-032 -24.21870041 4.140409946
ltoes  -4.250644065 -19.5611806 -102.515957
150
root  3.232644299 35.04111222 0.09530955764 -121.9749756 -83.06629944 114.6569824
lowerback  13.84770012 3.306649923 -1.61263001
upperback  5.798910141 3.895129919 0.3249599934
thorax  -1.77560997 1.799690008 0.6589990258
lowerneck  -3.211990118 7.240869999 -0.5116329789
upperneck  11.92150021 9.948690414 -2.460989952
head  4.638360023 4.699009895 -0.2411810011
lclavicle  0 -9.442270133e-015 7.951389973e-016
lhumerus  3.007119894 -10.91059971 82.1160965
lradius  2.545253413e-031 -2.44755574e-031 136.1210022
lwrist  -7.062250077e-031 -3.531125038e-031 -0.2968510091
lhand  -1.496451383e-031 -27.76390076 20.11240005
lfingers  90 7.125020027 -90
lthumb  89.89689403 5.08795885 91.16245106
rclavicle  0 -9.442270133e-015 7.951389973e-016
rhumerus  31.18160057 31.95789909 -74.27799988
rradius  -2.109448936e-031 2.831796113e-031 126.6829987
rwrist  7.062250077e-031 -0 -8.973859787
rhand  -7.920061211e-032 -33.2840004 9.303460121
rfingers  -90 -7.125020027 -90
rthumb  -92.93752616 -24.25625642 -97.11982154
rfemur  -15.41040039 23.90740013 -0.7819489837
rtibia  -0 0 67.63349915
rfoot  -0 -35.42710114 -12.72049999
rtoes  5.373923086 19.29304026 -105.8922705
lfemur  -19.24620056 -3.277800083 -7.268509865
ltibia  -0 0 68.54920197
lfoot  9.584797572e-032 -22.92399979 4.618100166
ltoes  -4.250644065 -19.5611806 -102.515957
151
root  3.406711263 35.18577636 0.02832866794 -122.5029907 -83.22419739 115.3239746
lowerback  14.23400021 3.095799923 -1.67979002
upperback  6.018599987 3.584569931 0.478756994
thorax  -1.757500052 1.63191998 0.8925960064
lowerneck  -3.111619949 7.397490025 -0.4276649952
upperneck  11.48880005 10.15439987 -2.568569899
head  4.474750042 4.812409878 -0.2935700119
lclavicle  0 -9.442270133e-015 7.951389973e-016
lhumerus  3.162909985 -10.69839954 81.99839783
lradius  2.565202368e-031 -2.426639826e-031 136.5899963
lwrist  -1.412450015e-030 -3.531125038e-031 0.1424999982
lhand  -1.496451383e-031 -27.76390076 20.11240005
lfingers  90 7.125020027 -90
lthumb  89.89689403 5.08795885 91.16245106
rclavicle  0 -9.442270133e-015 7.951389973e-016
rhumerus  31.17639923 32.31700134 -74.10510254
rradius  -2.108806343e-031 2.832274677e-031 126.6699982
rwrist  7.062250077e-031 -0 -8.991259575
rhand  -7.920061211e-032 -33.2840004 9.303460121
rfingers  -90 -7.125020027 -90
rthumb  -92.93752616 -24.25625642 -97.11982154
rfemur  -15.78120041 22.92169952 -0.4868960083
rtibia  -0 0 67.24440002
rfoot  -0 -35.29410172 -13.2173996
rtoes  5.373923086 19.29304026 -105.8922705
lfemur  -20.19910049 -4.064390182 -7.145639896
ltibia  -0 0 69.12590027
lfoot  4.736444809e-032 -21.26659966 5.110199928
ltoes  -4.250644065 -19.5611806 -102.515957
152
root  3.59002211 35.34466601 -0.0448404452 -121.0599976 -83.34580231 113.9749756
lowerback  14.72959995 2.883330107 -1.970409989
upperback  6.231219769 3.237210035 0.6156160235
thorax  -1.811059952 1.44216001 1.237900019
lowerneck  -3.055480003 7.490039825 -0.2626929879
upperneck  11.13020039 10.27519989 -2.720089912
head  4.35529995 4.882750034 -0.3744910061
lclavicle  0 -9.442270133e-015 7.951389973e-016
lhumerus  3.392250061 -10.5614996 81.91439819
lradius  2.58094556e-031 -2.409888805e-031 136.9629974
lwrist  -7.062250077e-031 -3.531125038e-031 0.6221200228
lhand  -1.496451383e-031 -27.76390076 20.11240005
lfingers  90 7.125020027 -90
lthumb  89.89689403 5.08795885 91.16245106
rclavicle  0 -9.442270133e-015 7.951389973e-016
rhumerus  31.09740067 32.47100067 -73.86940002
rradius  -2.106037127e-031 2.834334429e-031 126.6139984
rwrist  7.062250077e-031 -3.531125038e-031 -8.391090393
rhand  -7.920061211e-032 -33.2840004 9.303460121
rfingers  -90 -7.125020027 -90
rthumb  -92.93752616 -24.25625642 -97.11982154
rfemur  -16.01390076 21.8560009 -0.3863210082
rtibia  -0 0 66.78170013
rfoot  -0 -34.89459991 -13.66779995
rtoes  5.373923086 19.29304026 -105.8922705
lfemur  -21.27770042 -5.169370174 -7.252679825
ltibia  -0 0 69.77349854
lfoot  4.674168867e-032 -19.20999908 5.896900177
ltoes  -4.250644065 -19.5611806 -102.515957
